<mxfile host="app.diagrams.net" modified="2022-11-22T04:55:50.133Z" agent="5.0 (Macintosh; Intel Mac OS X 10_15_7) AppleWebKit/537.36 (KHTML, like Gecko) Chrome/107.0.0.0 Safari/537.36" etag="zbDMnEengDKM3xGbf_4m" version="20.5.1" type="github">
  <diagram id="prtHgNgQTEPvFCAcTncT" name="Page-1">
    <mxGraphModel dx="5208" dy="3582" grid="1" gridSize="10" guides="1" tooltips="1" connect="1" arrows="1" fold="1" page="1" pageScale="1" pageWidth="827" pageHeight="1169" math="0" shadow="0">
      <root>
        <mxCell id="0" />
        <mxCell id="1" parent="0" />
        <mxCell id="2LbZV6Y8oddciqM4bxeV-24" value="" style="group" vertex="1" connectable="0" parent="1">
          <mxGeometry x="-450" y="-210" width="1390" height="990" as="geometry" />
        </mxCell>
        <mxCell id="2LbZV6Y8oddciqM4bxeV-2" value="Web端渲染业务（&lt;font style=&quot;font-size: 24px;&quot;&gt;标准前端dom&lt;/font&gt;）" style="rounded=1;whiteSpace=wrap;html=1;fontSize=24;" vertex="1" parent="2LbZV6Y8oddciqM4bxeV-24">
          <mxGeometry x="500" y="100" width="890" height="170" as="geometry" />
        </mxCell>
        <mxCell id="2LbZV6Y8oddciqM4bxeV-6" value="" style="shape=flexArrow;endArrow=classic;startArrow=classic;html=1;rounded=0;fontSize=24;" edge="1" parent="2LbZV6Y8oddciqM4bxeV-24">
          <mxGeometry width="100" height="100" relative="1" as="geometry">
            <mxPoint x="590" y="540" as="sourcePoint" />
            <mxPoint x="590" y="390" as="targetPoint" />
            <Array as="points">
              <mxPoint x="590" y="430" />
            </Array>
          </mxGeometry>
        </mxCell>
        <mxCell id="2LbZV6Y8oddciqM4bxeV-7" value="" style="group" vertex="1" connectable="0" parent="2LbZV6Y8oddciqM4bxeV-24">
          <mxGeometry x="560" y="530" width="830" height="370" as="geometry" />
        </mxCell>
        <mxCell id="2LbZV6Y8oddciqM4bxeV-1" value="Electron" style="rounded=1;whiteSpace=wrap;html=1;fontSize=24;align=right;" vertex="1" parent="2LbZV6Y8oddciqM4bxeV-7">
          <mxGeometry x="-86.74605217338645" y="38.94736842105263" width="916.7460521733865" height="331.0526315789474" as="geometry" />
        </mxCell>
        <mxCell id="2LbZV6Y8oddciqM4bxeV-29" value="" style="group" vertex="1" connectable="0" parent="2LbZV6Y8oddciqM4bxeV-7">
          <mxGeometry x="-34.22607872489829" y="88.0952380952381" width="607.9025493131337" height="232.3547619047619" as="geometry" />
        </mxCell>
        <mxCell id="2LbZV6Y8oddciqM4bxeV-3" value="node模块" style="rounded=1;whiteSpace=wrap;html=1;fontSize=24;" vertex="1" parent="2LbZV6Y8oddciqM4bxeV-29">
          <mxGeometry x="0.0007846072512265323" y="167.3847619047619" width="607.9017647058824" height="64.97" as="geometry" />
        </mxCell>
        <mxCell id="2LbZV6Y8oddciqM4bxeV-4" value="断点续传" style="rounded=1;whiteSpace=wrap;html=1;fontSize=16;" vertex="1" parent="2LbZV6Y8oddciqM4bxeV-29">
          <mxGeometry width="178.36994119646022" height="66.07142857142858" as="geometry" />
        </mxCell>
        <mxCell id="2LbZV6Y8oddciqM4bxeV-5" value="断点下载" style="rounded=1;whiteSpace=wrap;html=1;fontSize=16;" vertex="1" parent="2LbZV6Y8oddciqM4bxeV-29">
          <mxGeometry x="205.11197340921393" width="178.36994119646022" height="66.07142857142858" as="geometry" />
        </mxCell>
        <mxCell id="2LbZV6Y8oddciqM4bxeV-10" value="&lt;font style=&quot;font-size: 24px;&quot;&gt;文件管理(文件的增删改查)&lt;/font&gt;" style="rounded=1;whiteSpace=wrap;html=1;fontSize=16;" vertex="1" parent="2LbZV6Y8oddciqM4bxeV-29">
          <mxGeometry x="0.0007846072512265323" y="88.0947619047619" width="607.9017647058824" height="52.86" as="geometry" />
        </mxCell>
        <mxCell id="2LbZV6Y8oddciqM4bxeV-20" value="文件操作" style="rounded=1;whiteSpace=wrap;html=1;fontSize=16;" vertex="1" parent="2LbZV6Y8oddciqM4bxeV-29">
          <mxGeometry x="412.6084316660748" y="2.904761904761898" width="146.47058823529414" height="60" as="geometry" />
        </mxCell>
        <mxCell id="2LbZV6Y8oddciqM4bxeV-8" value="渲染线程和主线程通过标准通信方式发起方法调用" style="text;html=1;align=center;verticalAlign=middle;resizable=0;points=[];autosize=1;strokeColor=none;fillColor=none;fontSize=16;" vertex="1" parent="2LbZV6Y8oddciqM4bxeV-24">
          <mxGeometry x="600" y="450" width="380" height="30" as="geometry" />
        </mxCell>
        <mxCell id="2LbZV6Y8oddciqM4bxeV-11" value="服务器" style="rounded=1;whiteSpace=wrap;html=1;fontSize=24;" vertex="1" parent="2LbZV6Y8oddciqM4bxeV-24">
          <mxGeometry width="120" height="990" as="geometry" />
        </mxCell>
        <mxCell id="2LbZV6Y8oddciqM4bxeV-14" value="" style="shape=flexArrow;endArrow=classic;startArrow=classic;html=1;rounded=0;fontSize=24;" edge="1" parent="2LbZV6Y8oddciqM4bxeV-24">
          <mxGeometry width="100" height="100" relative="1" as="geometry">
            <mxPoint x="370" y="750" as="sourcePoint" />
            <mxPoint x="470" y="750" as="targetPoint" />
          </mxGeometry>
        </mxCell>
        <mxCell id="2LbZV6Y8oddciqM4bxeV-15" value="&lt;font style=&quot;font-size: 16px;&quot;&gt;文件管理接口&lt;/font&gt;" style="rounded=1;whiteSpace=wrap;html=1;fontSize=24;" vertex="1" parent="2LbZV6Y8oddciqM4bxeV-24">
          <mxGeometry x="500" y="290" width="180" height="70" as="geometry" />
        </mxCell>
        <mxCell id="2LbZV6Y8oddciqM4bxeV-16" value="viewer" style="rounded=1;whiteSpace=wrap;html=1;fontSize=16;dashed=1;" vertex="1" parent="2LbZV6Y8oddciqM4bxeV-24">
          <mxGeometry x="1230" y="110" width="120" height="60" as="geometry" />
        </mxCell>
        <mxCell id="2LbZV6Y8oddciqM4bxeV-17" value="cvs" style="rounded=1;whiteSpace=wrap;html=1;fontSize=16;dashed=1;" vertex="1" parent="2LbZV6Y8oddciqM4bxeV-24">
          <mxGeometry x="1230" y="190" width="120" height="60" as="geometry" />
        </mxCell>
        <mxCell id="2LbZV6Y8oddciqM4bxeV-18" value="form" style="rounded=1;whiteSpace=wrap;html=1;dashed=1;fontSize=16;" vertex="1" parent="2LbZV6Y8oddciqM4bxeV-24">
          <mxGeometry x="1090" y="110" width="120" height="60" as="geometry" />
        </mxCell>
        <mxCell id="2LbZV6Y8oddciqM4bxeV-21" value="" style="shape=flexArrow;endArrow=classic;startArrow=classic;html=1;rounded=0;fontSize=24;" edge="1" parent="2LbZV6Y8oddciqM4bxeV-24">
          <mxGeometry width="100" height="100" relative="1" as="geometry">
            <mxPoint x="380" y="199" as="sourcePoint" />
            <mxPoint x="480" y="199" as="targetPoint" />
          </mxGeometry>
        </mxCell>
        <mxCell id="2LbZV6Y8oddciqM4bxeV-23" value="数据交互" style="rounded=1;whiteSpace=wrap;html=1;fontSize=16;dashed=1;" vertex="1" parent="2LbZV6Y8oddciqM4bxeV-24">
          <mxGeometry x="260" y="100" width="100" height="790" as="geometry" />
        </mxCell>
        <mxCell id="2LbZV6Y8oddciqM4bxeV-25" value="服务器" style="rounded=1;whiteSpace=wrap;html=1;fontSize=16;" vertex="1" parent="1">
          <mxGeometry x="-450" y="-990" width="120" height="630" as="geometry" />
        </mxCell>
        <mxCell id="2LbZV6Y8oddciqM4bxeV-26" value="Electron" style="rounded=1;whiteSpace=wrap;html=1;fontSize=16;align=right;" vertex="1" parent="1">
          <mxGeometry x="-120" y="-990" width="1110" height="610" as="geometry" />
        </mxCell>
        <mxCell id="2LbZV6Y8oddciqM4bxeV-27" value="Web渲染业务" style="rounded=1;whiteSpace=wrap;html=1;fontSize=16;verticalAlign=top;" vertex="1" parent="1">
          <mxGeometry x="-70" y="-950" width="770" height="510" as="geometry" />
        </mxCell>
        <mxCell id="2LbZV6Y8oddciqM4bxeV-30" value="" style="group" vertex="1" connectable="0" parent="1">
          <mxGeometry x="-20" y="-750" width="660" height="270" as="geometry" />
        </mxCell>
        <mxCell id="2LbZV6Y8oddciqM4bxeV-31" value="node模块" style="rounded=1;whiteSpace=wrap;html=1;fontSize=24;" vertex="1" parent="2LbZV6Y8oddciqM4bxeV-30">
          <mxGeometry x="0.0008518483536458553" y="194.50380678150202" width="659.9991481516463" height="75.496193218498" as="geometry" />
        </mxCell>
        <mxCell id="2LbZV6Y8oddciqM4bxeV-32" value="断点续传" style="rounded=1;whiteSpace=wrap;html=1;fontSize=16;" vertex="1" parent="2LbZV6Y8oddciqM4bxeV-30">
          <mxGeometry width="193.65630448939513" height="76.77607107358413" as="geometry" />
        </mxCell>
        <mxCell id="2LbZV6Y8oddciqM4bxeV-33" value="断点下载" style="rounded=1;whiteSpace=wrap;html=1;fontSize=16;" vertex="1" parent="2LbZV6Y8oddciqM4bxeV-30">
          <mxGeometry x="222.6901377581646" width="193.65630448939513" height="76.77607107358413" as="geometry" />
        </mxCell>
        <mxCell id="2LbZV6Y8oddciqM4bxeV-34" value="&lt;font style=&quot;font-size: 24px;&quot;&gt;文件管理(文件的增删改查)&lt;/font&gt;" style="rounded=1;whiteSpace=wrap;html=1;fontSize=16;" vertex="1" parent="2LbZV6Y8oddciqM4bxeV-30">
          <mxGeometry x="0.0008518483536458553" y="102.36754142372604" width="659.9991481516463" height="61.42417690518399" as="geometry" />
        </mxCell>
        <mxCell id="2LbZV6Y8oddciqM4bxeV-35" value="文件操作" style="rounded=1;whiteSpace=wrap;html=1;fontSize=16;" vertex="1" parent="2LbZV6Y8oddciqM4bxeV-30">
          <mxGeometry x="447.9691115085868" y="3.3753804219737806" width="159.02316636855988" height="69.72097265060611" as="geometry" />
        </mxCell>
        <mxCell id="2LbZV6Y8oddciqM4bxeV-51" value="" style="group" vertex="1" connectable="0" parent="1">
          <mxGeometry x="-1960" y="-1065" width="990" height="780" as="geometry" />
        </mxCell>
        <mxCell id="2LbZV6Y8oddciqM4bxeV-37" value="React" style="rounded=1;whiteSpace=wrap;html=1;fontSize=24;" vertex="1" parent="2LbZV6Y8oddciqM4bxeV-51">
          <mxGeometry x="210" y="300" width="210" height="100" as="geometry" />
        </mxCell>
        <mxCell id="2LbZV6Y8oddciqM4bxeV-38" value="React-Router" style="rounded=1;whiteSpace=wrap;html=1;fontSize=24;" vertex="1" parent="2LbZV6Y8oddciqM4bxeV-51">
          <mxGeometry x="500" y="300" width="210" height="100" as="geometry" />
        </mxCell>
        <mxCell id="2LbZV6Y8oddciqM4bxeV-39" value="Redux" style="rounded=1;whiteSpace=wrap;html=1;fontSize=24;" vertex="1" parent="2LbZV6Y8oddciqM4bxeV-51">
          <mxGeometry x="770" y="300" width="210" height="100" as="geometry" />
        </mxCell>
        <mxCell id="2LbZV6Y8oddciqM4bxeV-41" value="Antd" style="rounded=1;whiteSpace=wrap;html=1;fontSize=24;" vertex="1" parent="2LbZV6Y8oddciqM4bxeV-51">
          <mxGeometry x="210" y="170" width="770" height="100" as="geometry" />
        </mxCell>
        <mxCell id="2LbZV6Y8oddciqM4bxeV-42" value="Vite" style="rounded=1;whiteSpace=wrap;html=1;fontSize=24;" vertex="1" parent="2LbZV6Y8oddciqM4bxeV-51">
          <mxGeometry x="210" y="440" width="770" height="80" as="geometry" />
        </mxCell>
        <mxCell id="2LbZV6Y8oddciqM4bxeV-43" value="Electron" style="rounded=1;whiteSpace=wrap;html=1;fontSize=24;" vertex="1" parent="2LbZV6Y8oddciqM4bxeV-51">
          <mxGeometry y="160" width="160" height="360" as="geometry" />
        </mxCell>
        <mxCell id="2LbZV6Y8oddciqM4bxeV-44" value="Electron-Builder" style="rounded=1;whiteSpace=wrap;html=1;fontSize=24;" vertex="1" parent="2LbZV6Y8oddciqM4bxeV-51">
          <mxGeometry y="680" width="990" height="100" as="geometry" />
        </mxCell>
        <mxCell id="2LbZV6Y8oddciqM4bxeV-45" value="Electron-Updater" style="rounded=1;whiteSpace=wrap;html=1;fontSize=24;" vertex="1" parent="2LbZV6Y8oddciqM4bxeV-51">
          <mxGeometry y="550" width="990" height="90" as="geometry" />
        </mxCell>
        <mxCell id="2LbZV6Y8oddciqM4bxeV-46" value="" style="rounded=1;whiteSpace=wrap;html=1;fontSize=24;" vertex="1" parent="2LbZV6Y8oddciqM4bxeV-51">
          <mxGeometry width="990" height="120" as="geometry" />
        </mxCell>
        <mxCell id="2LbZV6Y8oddciqM4bxeV-47" value="" style="rounded=1;whiteSpace=wrap;html=1;fontSize=24;" vertex="1" parent="2LbZV6Y8oddciqM4bxeV-51">
          <mxGeometry x="40" y="30" width="120" height="60" as="geometry" />
        </mxCell>
        <mxCell id="2LbZV6Y8oddciqM4bxeV-48" value="" style="rounded=1;whiteSpace=wrap;html=1;fontSize=24;" vertex="1" parent="2LbZV6Y8oddciqM4bxeV-51">
          <mxGeometry x="220" y="30" width="120" height="60" as="geometry" />
        </mxCell>
        <mxCell id="2LbZV6Y8oddciqM4bxeV-49" value="" style="rounded=1;whiteSpace=wrap;html=1;fontSize=24;" vertex="1" parent="2LbZV6Y8oddciqM4bxeV-51">
          <mxGeometry x="545" y="30" width="120" height="60" as="geometry" />
        </mxCell>
        <mxCell id="2LbZV6Y8oddciqM4bxeV-50" value="" style="rounded=1;whiteSpace=wrap;html=1;fontSize=24;" vertex="1" parent="2LbZV6Y8oddciqM4bxeV-51">
          <mxGeometry x="390" y="30" width="120" height="60" as="geometry" />
        </mxCell>
        <mxCell id="2LbZV6Y8oddciqM4bxeV-53" value="技术选型" style="text;html=1;strokeColor=none;fillColor=none;align=center;verticalAlign=middle;whiteSpace=wrap;rounded=0;fontSize=32;" vertex="1" parent="1">
          <mxGeometry x="-1960" y="-1160" width="200" height="30" as="geometry" />
        </mxCell>
        <mxCell id="2LbZV6Y8oddciqM4bxeV-54" value="产品架构方式A" style="text;html=1;strokeColor=none;fillColor=none;align=center;verticalAlign=middle;whiteSpace=wrap;rounded=0;fontSize=32;" vertex="1" parent="1">
          <mxGeometry x="-490" y="-1180" width="270" height="30" as="geometry" />
        </mxCell>
        <mxCell id="2LbZV6Y8oddciqM4bxeV-55" value="产品架构方式B" style="text;html=1;strokeColor=none;fillColor=none;align=center;verticalAlign=middle;whiteSpace=wrap;rounded=0;fontSize=32;" vertex="1" parent="1">
          <mxGeometry x="-490" y="-300" width="270" height="30" as="geometry" />
        </mxCell>
      </root>
    </mxGraphModel>
  </diagram>
</mxfile>
